<svg width="35" height="35" viewBox="0 0 35 35" fill="none" xmlns="http://www.w3.org/2000/svg">
<g clip-path="url(#clip0_30_11)">
<path d="M15.0591 30.1123C14.3135 29.5738 13.878 29.0282 13.7258 28.4437C13.1613 26.2615 11.3385 24.6687 9.29338 24.6687C7.24847 24.6687 5.35737 26.2615 4.79287 28.4448C4.64066 29.0271 4.20514 29.5738 3.45933 30.1132C2.55143 30.7708 2.1362 31.788 2.37546 32.7688C2.66305 33.9488 3.97336 34.9982 5.76566 34.9982C6.52349 34.9982 7.24313 34.8038 7.84581 34.4366C8.24609 34.1912 8.79083 34.0612 9.29151 34.0612C9.79192 34.0612 10.2672 34.1904 10.6728 34.4355C11.2774 34.8048 11.993 35 12.7439 35C14.5352 35 15.8535 33.956 16.1432 32.769C16.3825 31.788 15.9662 30.7698 15.0591 30.1123Z" fill="black"/>
<path d="M4.09996 24.6686C4.09996 23.4825 3.16216 21.5935 2.04998 21.5935C0.938072 21.5935 0 23.4825 0 24.6686C0 25.7987 0.919914 26.7186 2.04998 26.7186C3.18005 26.7186 4.09996 25.7987 4.09996 24.6686Z" fill="black"/>
<path d="M16.4684 21.5935C15.3565 21.5935 14.4185 23.4825 14.4185 24.6686C14.4185 25.7987 15.3384 26.7186 16.4684 26.7186C17.5985 26.7186 18.5184 25.7987 18.5184 24.6686C18.5184 23.4825 17.5806 21.5935 16.4684 21.5935Z" fill="black"/>
<path d="M10.3185 20.5685C10.3185 21.6988 11.2384 22.6187 12.3685 22.6187C13.4985 22.6187 14.4184 21.6988 14.4184 20.5685C14.4184 19.3823 13.4806 17.4937 12.3685 17.4937C11.2563 17.4937 10.3185 19.3823 10.3185 20.5685Z" fill="black"/>
<path d="M6.15022 22.6187C7.28029 22.6187 8.2002 21.6988 8.2002 20.5685C8.2002 19.3823 7.26213 17.4937 6.15022 17.4937C5.03805 17.4937 4.09998 19.3823 4.09998 20.5685C4.09998 21.6988 5.01989 22.6187 6.15022 22.6187Z" fill="black"/>
<path d="M31.5276 12.6187C30.782 12.0801 30.3465 11.4662 30.1943 10.8817C29.6298 8.69952 27.7387 7.17505 25.6935 7.17505C23.6486 7.17505 21.8259 8.69952 21.2614 10.8827C21.1092 11.4654 20.6736 12.0801 19.9278 12.6198C19.0199 13.2775 18.6047 14.2943 18.844 15.2754C19.1316 16.4551 20.4419 17.5045 22.2342 17.5045C22.992 17.5045 23.7116 17.3104 24.3143 16.943C24.7146 16.6976 25.191 16.5675 25.6916 16.5675C26.1921 16.5675 26.7357 16.6968 27.1413 16.9419C27.7459 17.3112 28.4615 17.5067 29.2124 17.5067C31.0036 17.5067 32.322 16.4623 32.6117 15.2754C32.851 14.2943 32.4347 13.2764 31.5276 12.6187Z" fill="black"/>
<path d="M20.5687 7.17496C20.5687 5.98882 19.6307 4.09985 18.5185 4.09985C17.4066 4.09985 16.4685 5.98882 16.4685 7.17496C16.4685 8.30502 17.3884 9.22494 18.5185 9.22494C19.6488 9.22494 20.5687 8.30502 20.5687 7.17496Z" fill="black"/>
<path d="M32.9369 4.09985C31.825 4.09985 30.887 5.98882 30.887 7.17496C30.887 8.30502 31.8069 9.22494 32.9369 9.22494C34.0673 9.22494 34.9872 8.30502 34.9872 7.17496C34.9872 5.98882 34.0491 4.09985 32.9369 4.09985Z" fill="black"/>
<path d="M26.787 3.0751C26.787 4.20517 27.7069 5.12508 28.837 5.12508C29.967 5.12508 30.8869 4.20517 30.8869 3.0751C30.8869 1.88896 29.9491 0 28.837 0C27.7248 0 26.787 1.88896 26.787 3.0751Z" fill="black"/>
<path d="M20.5687 3.0751C20.5687 4.20517 21.4886 5.12508 22.6187 5.12508C23.7488 5.12508 24.6687 4.20517 24.6687 3.0751C24.6687 1.88896 23.7306 0 22.6187 0C21.5065 0 20.5687 1.88896 20.5687 3.0751Z" fill="black"/>
</g>
<defs>
<clipPath id="clip0_30_11">
<rect width="35" height="35" fill="white"/>
</clipPath>
</defs>
</svg>
