<svg width="34" height="34" viewBox="0 0 34 34" fill="none" xmlns="http://www.w3.org/2000/svg">
<path d="M13.2305 9.48317L13.2308 9.48383C13.4474 9.9665 13.8085 10.846 14.099 11.5534L14.1024 11.5617C14.2164 11.8394 14.3197 12.0909 14.4003 12.2847C14.4407 12.3817 14.4748 12.4628 14.5014 12.5249C14.5148 12.556 14.5258 12.5811 14.5344 12.6006L14.5449 12.6235C14.5474 12.6289 14.5486 12.6313 14.5488 12.6317L14.5488 12.6318L14.1019 12.8561M13.2305 9.48317L14.5843 13.822C14.8204 13.3381 14.6918 12.9164 14.5487 12.6317L14.1019 12.8561M13.2305 9.48317C13.0454 9.07232 12.8227 8.78773 12.5367 8.62197C12.2599 8.46148 11.9878 8.45438 11.8351 8.4504C11.8316 8.45031 11.8282 8.45022 11.8248 8.45013C11.8254 8.45015 11.8259 8.45017 11.8265 8.45019L11.8099 8.94991C12.1149 8.95809 12.4529 8.97457 12.7746 9.68854C12.9879 10.1638 13.3472 11.0388 13.6399 11.7516L13.64 11.7518C13.8677 12.3064 14.055 12.7627 14.1019 12.8561M13.2305 9.48317L14.1349 13.6028C14.2751 13.3156 14.2091 13.0694 14.1019 12.8561M9.47284 9.13508C9.45129 9.15832 9.427 9.18399 9.39833 9.21429L9.76027 9.55676L9.39833 9.2143C8.92597 9.71351 7.83883 10.8662 7.83883 13.0449C7.83883 14.1935 8.25186 15.2957 8.67417 16.1302C9.09987 16.9715 9.55705 17.5832 9.68527 17.7548L9.68532 17.7549L9.68535 17.7549L9.69422 17.7668L9.69424 17.7668C9.69451 17.7672 9.69628 17.7696 9.70011 17.775L9.71621 17.7983C9.72982 17.8182 9.74686 17.8434 9.76845 17.8753L9.7743 17.8839C10.3241 18.6966 13.0628 22.7449 17.2498 24.3914C18.9055 25.0431 19.9921 25.3517 20.7716 25.4824C21.5695 25.6162 22.0345 25.5612 22.4195 25.5146C22.4973 25.5052 22.5653 25.497 22.6326 25.4907C23.1438 25.4428 23.858 25.1365 24.4683 24.7434C25.0722 24.3544 25.7186 23.7888 25.9579 23.1281L25.9591 23.1247C26.1507 22.5836 26.2483 22.0781 26.2828 21.6751C26.3 21.4742 26.3022 21.2911 26.29 21.1368C26.28 21.0091 26.2555 20.8197 26.1652 20.6676C26.1651 20.6675 26.1651 20.6675 26.1651 20.6674L25.7351 20.9227M9.47284 9.13508L19.1944 20.6589L19.1948 20.6589C19.1948 20.6589 19.1944 20.659 19.1939 20.6591C19.1936 20.6592 19.1937 20.6592 19.1943 20.6589C19.1881 20.6596 19.1222 20.6634 18.9416 20.5735M9.47284 9.13508C9.47285 9.13507 9.47285 9.13507 9.47285 9.13507L9.82426 9.46098L9.47284 9.13508ZM25.7351 20.9227C25.6492 20.7777 25.4464 20.6805 25.1481 20.5375L25.148 20.5374C25.0746 20.5022 24.9954 20.4642 24.9106 20.422C24.482 20.2087 22.3713 19.1747 21.9757 19.0271C21.5798 18.8794 21.2913 18.8137 21.011 19.2404M25.7351 20.9227C25.8423 21.1032 25.8423 21.9566 25.4878 22.9578M25.7351 20.9227L25.4878 22.9578M21.011 19.2404L20.5969 18.9602C20.5964 18.9609 20.5959 18.9617 20.5954 18.9624C20.5947 18.9635 20.5939 18.9647 20.5931 18.9659L21.011 19.2404ZM21.011 19.2404C20.7224 19.6671 19.898 20.6272 19.6505 20.9145C19.4032 21.2017 19.1477 21.2345 18.7189 21.0212M18.7189 21.0212L18.9417 20.5735C18.9416 20.5735 18.9416 20.5735 18.9416 20.5735M18.7189 21.0212L18.9416 20.5735M18.7189 21.0212C18.6492 20.9865 18.5542 20.9455 18.437 20.8949C17.8331 20.6343 16.6384 20.1189 15.2645 18.8957C13.9866 17.7633 13.1209 16.36 12.8734 15.9333M18.9416 20.5735C18.8595 20.5327 18.754 20.4871 18.6457 20.4404L18.635 20.4358L18.6339 20.4353C18.047 20.1821 16.9106 19.6918 15.597 18.5223L15.5961 18.5215C14.3777 17.4419 13.5439 16.0928 13.306 15.6826M13.306 15.6826L12.8734 15.9333M13.306 15.6826C13.2754 15.6298 13.2674 15.5999 13.2654 15.5894M13.306 15.6826C13.306 15.6826 13.3059 15.6825 13.3059 15.6825L12.8734 15.9333M12.8734 15.9333C12.6261 15.5067 12.8488 15.2767 13.0631 15.0635C13.1839 14.9432 13.3249 14.7728 13.4668 14.6013C13.5475 14.5038 13.6285 14.406 13.7062 14.3167L13.2654 15.5894M13.2654 15.5894C13.2688 15.5826 13.2774 15.568 13.2968 15.5441C13.3247 15.5097 13.3604 15.473 13.4157 15.418L13.416 15.4178C13.554 15.2802 13.7076 15.0946 13.8417 14.9326L13.852 14.9201C13.9336 14.8215 14.0104 14.7287 14.0832 14.6452L14.0833 14.6451C14.3166 14.3771 14.421 14.1605 14.5338 13.9263L14.5382 13.9173L14.5382 13.9172C14.5533 13.886 14.5684 13.8547 14.5843 13.8221L13.2654 15.5894ZM13.2654 15.5894C13.2641 15.5919 13.2635 15.5934 13.2633 15.5939C13.2633 15.594 13.2633 15.594 13.2633 15.5939C13.2634 15.5936 13.264 15.5917 13.2644 15.5886C13.2647 15.5862 13.2646 15.5847 13.2646 15.5847C13.2646 15.5847 13.2647 15.5851 13.2647 15.5857C13.2648 15.5864 13.265 15.5876 13.2654 15.5894ZM25.4878 22.9578C25.1251 23.9589 23.3772 24.919 22.5857 24.9929C22.5107 24.9999 22.4362 25.0089 22.3594 25.0182C21.6341 25.106 20.7133 25.2174 17.4327 23.9261C13.3904 22.3365 10.7221 18.3925 10.1826 17.5951C10.14 17.5322 10.1107 17.4888 10.095 17.4678L10.0859 17.4556C9.84042 17.1272 8.33883 15.1179 8.33883 13.0449C8.33883 11.0615 9.31587 10.0289 9.76152 9.55794C9.78976 9.5281 9.81587 9.5005 9.83946 9.47507C10.2351 9.04841 10.6969 8.94174 10.9854 8.94174L25.4878 22.9578ZM9.36854 30.9293C9.25703 30.8689 9.12674 30.8531 9.00404 30.8852L1.32514 32.8909C1.20096 32.9233 1.08825 32.8091 1.12234 32.6853L3.17336 25.2405C3.20897 25.1112 3.19118 24.9731 3.12399 24.8571C1.71409 22.4227 0.972504 19.6622 0.973512 16.8526V16.8524C0.973512 8.02209 8.20056 0.833496 17.07 0.833496C21.3818 0.833496 25.4186 2.50444 28.4577 5.52938C31.4963 8.55387 33.1667 12.5787 33.1667 16.8606C33.1667 25.6908 25.9397 32.8794 17.0701 32.8794H17.0619C14.3669 32.8794 11.7197 32.2028 9.36854 30.9293Z" fill="white" stroke="white" stroke-linejoin="round"/>
</svg>
