<svg width="34" height="30" viewBox="0 0 34 30" fill="none" xmlns="http://www.w3.org/2000/svg">
<path fill-rule="evenodd" clip-rule="evenodd" d="M28.8052 27.9835L28.8063 27.9806L28.8353 27.9081L33.8333 2.70967V2.62782C33.8333 1.99999 33.6013 1.45189 33.0965 1.12312C32.6547 0.835354 32.1467 0.81486 31.7906 0.841894C31.4139 0.870485 31.0587 0.964511 30.8128 1.04278C30.6863 1.08304 30.5804 1.12184 30.5047 1.15119C30.4667 1.16591 30.4359 1.17841 30.4135 1.18772L30.3915 1.19698L2.52511 12.1285L2.51744 12.1313C2.50239 12.1368 2.48249 12.1442 2.45845 12.1536C2.41053 12.1722 2.34529 12.1989 2.26866 12.2336C2.11819 12.3018 1.9103 12.4071 1.69946 12.5514C1.34137 12.7967 0.659515 13.3772 0.774652 14.2976C0.87002 15.0599 1.39552 15.5441 1.74981 15.7948C1.93972 15.9291 2.12141 16.026 2.25446 16.0894C2.32187 16.1215 2.37913 16.1461 2.42178 16.1634C2.44316 16.1721 2.46104 16.1791 2.47487 16.1843L2.49258 16.1909L2.5039 16.1952L7.3793 17.8365C7.36284 18.1424 7.39318 18.4543 7.4743 18.762L9.91644 28.026C10.206 29.1244 11.1997 29.8896 12.3357 29.8888C13.3539 29.888 14.2569 29.272 14.6406 28.353L18.4534 24.2762L25.0017 29.2966L25.0948 29.3372C25.6897 29.5968 26.2456 29.6791 26.7538 29.6097C27.2613 29.5403 27.6646 29.3275 27.9675 29.0852C28.2656 28.8467 28.4699 28.5775 28.5984 28.3748C28.6636 28.2719 28.7123 28.1814 28.7461 28.1133C28.763 28.0791 28.7764 28.0501 28.7864 28.0276L28.7989 27.9986L28.8034 27.9878L28.8052 27.9835ZM9.89164 18.1247C9.83613 17.9142 9.92327 17.6919 10.1071 17.5752L26.6438 7.07366C26.6438 7.07366 27.6164 6.48317 27.5816 7.07366C27.5816 7.07366 27.7552 7.17794 27.234 7.66415C26.7397 8.12594 15.4479 19.0277 14.3053 20.1308C14.2394 20.1945 14.2 20.2676 14.1768 20.3562L12.3338 27.3887L9.89164 18.1247Z" fill="white"/>
</svg>
