<svg width="22" height="26" viewBox="0 0 22 26" fill="none" xmlns="http://www.w3.org/2000/svg">
<path d="M19.6006 13.525L11.8756 21.2625C10.8628 22.1625 9.5445 22.6416 8.19022 22.6017C6.83594 22.5619 5.54807 22.0061 4.59003 21.0481C3.632 20.09 3.0762 18.8021 3.03634 17.4479C2.99647 16.0936 3.47555 14.7753 4.37557 13.7625L14.3756 3.76252C14.9726 3.19539 15.7646 2.87918 16.5881 2.87918C17.4115 2.87918 18.2035 3.19539 18.8006 3.76252C19.3823 4.35201 19.7084 5.14686 19.7084 5.97502C19.7084 6.80318 19.3823 7.59803 18.8006 8.18752L10.1756 16.8C10.0902 16.8919 9.98758 16.9662 9.87354 17.0184C9.7595 17.0707 9.63628 17.1 9.51092 17.1046C9.38556 17.1093 9.26052 17.0892 9.14292 17.0455C9.02533 17.0018 8.91749 16.9354 8.82557 16.85C8.73364 16.7647 8.65943 16.662 8.60717 16.548C8.5549 16.434 8.52562 16.3107 8.52097 16.1854C8.51633 16.06 8.53642 15.935 8.58011 15.8174C8.62379 15.6998 8.69021 15.5919 8.77557 15.5L15.1881 9.10002C15.4234 8.86464 15.5557 8.5454 15.5557 8.21252C15.5557 7.87964 15.4234 7.5604 15.1881 7.32502C14.9527 7.08964 14.6334 6.95741 14.3006 6.95741C13.9677 6.95741 13.6484 7.08964 13.4131 7.32502L7.00057 13.75C6.6797 14.0684 6.42502 14.4471 6.25123 14.8644C6.07744 15.2817 5.98796 15.7292 5.98796 16.1813C5.98796 16.6333 6.07744 17.0808 6.25123 17.4981C6.42502 17.9154 6.6797 18.2941 7.00057 18.6125C7.65603 19.2369 8.52658 19.5851 9.43182 19.5851C10.3371 19.5851 11.2076 19.2369 11.8631 18.6125L20.4756 9.98752C21.4692 8.92121 22.0101 7.51086 21.9844 6.0536C21.9587 4.59634 21.3683 3.20595 20.3377 2.17536C19.3071 1.14476 17.9167 0.55442 16.4595 0.528708C15.0022 0.502997 13.5919 1.04392 12.5256 2.03752L2.52557 12.0375C1.17707 13.5311 0.456851 15.4873 0.514983 17.4987C0.573114 19.5101 1.40511 21.4216 2.83762 22.8347C4.27012 24.2479 6.19266 25.0538 8.20467 25.0846C10.2167 25.1154 12.163 24.3687 13.6381 23L21.3756 15.275C21.4921 15.1585 21.5846 15.0201 21.6476 14.8678C21.7107 14.7156 21.7432 14.5523 21.7432 14.3875C21.7432 14.2227 21.7107 14.0595 21.6476 13.9072C21.5846 13.7549 21.4921 13.6166 21.3756 13.5C21.259 13.3835 21.1207 13.291 20.9684 13.2279C20.8161 13.1649 20.6529 13.1324 20.4881 13.1324C20.3232 13.1324 20.16 13.1649 20.0078 13.2279C19.8555 13.291 19.7171 13.3835 19.6006 13.5V13.525Z" fill="#C1AA8C"/>
</svg>
