<svg width="36" height="21" viewBox="0 0 36 21" fill="none" xmlns="http://www.w3.org/2000/svg">
<path d="M33.8391 20.6349H30.0366C28.5979 20.6349 28.1653 19.47 25.5851 16.8898C23.3333 14.7188 22.382 14.4477 21.8113 14.4477C21.0242 14.4477 20.8079 14.664 20.8079 15.7508V19.1702C20.8079 20.0955 20.5081 20.6375 18.0922 20.6375C15.7474 20.48 13.4737 19.7676 11.4582 18.5591C9.44274 17.3507 7.7432 15.6807 6.49958 13.6867C3.54714 10.0119 1.49283 5.6989 0.5 1.09071C0.5 0.519938 0.716318 0.00390201 1.80312 0.00390201H5.60303C6.58037 0.00390201 6.93221 0.439145 7.31533 1.44255C9.16055 6.87397 12.3089 11.5965 13.586 11.5965C14.0759 11.5965 14.2896 11.3802 14.2896 10.1578V4.56483C14.1281 2.01332 12.7728 1.797 12.7728 0.874387C12.7902 0.631039 12.9017 0.404044 13.0837 0.241537C13.2657 0.0790294 13.5038 -0.00620774 13.7475 0.00390201H19.7211C20.5368 0.00390201 20.8079 0.410477 20.8079 1.38782V8.93551C20.8079 9.75126 21.1597 10.0223 21.4047 10.0223C21.8947 10.0223 22.2726 9.75126 23.1691 8.85471C25.0948 6.50635 26.6681 3.89001 27.8395 1.0881C27.9593 0.75154 28.1858 0.463393 28.4846 0.267634C28.7835 0.0718756 29.1381 -0.0207461 29.4945 0.00390201H33.297C34.4359 0.00390201 34.6783 0.57467 34.4359 1.38782C33.0533 4.48516 31.3425 7.42531 29.3329 10.1578C28.9237 10.7833 28.7595 11.1091 29.3329 11.8415C29.7108 12.4122 31.0426 13.5251 31.9391 14.5832C33.242 15.8828 34.3239 17.3864 35.1422 19.0347C35.468 20.0928 34.9233 20.6349 33.8391 20.6349Z" fill="white"/>
</svg>
