<svg width="40" height="40" viewBox="0 0 40 40" fill="none" xmlns="http://www.w3.org/2000/svg">
<path d="M16.2305 12.4832L16.2308 12.4838C16.4474 12.9665 16.8085 13.846 17.099 14.5534L17.1024 14.5617C17.2164 14.8394 17.3197 15.0909 17.4003 15.2847C17.4407 15.3817 17.4748 15.4628 17.5014 15.5249C17.5148 15.556 17.5258 15.5811 17.5344 15.6006L17.5449 15.6235C17.5474 15.6289 17.5486 15.6313 17.5488 15.6317L17.5488 15.6318L17.1019 15.8561M16.2305 12.4832L17.5843 16.822C17.8204 16.3381 17.6918 15.9164 17.5487 15.6317L17.1019 15.8561M16.2305 12.4832C16.0454 12.0723 15.8227 11.7877 15.5367 11.622C15.2599 11.4615 14.9878 11.4544 14.8351 11.4504C14.8316 11.4503 14.8282 11.4502 14.8248 11.4501C14.8254 11.4502 14.8259 11.4502 14.8265 11.4502L14.8099 11.9499C15.1149 11.9581 15.4529 11.9746 15.7746 12.6885C15.9879 13.1638 16.3472 14.0388 16.6399 14.7516L16.64 14.7518C16.8677 15.3064 17.055 15.7627 17.1019 15.8561M16.2305 12.4832L17.1349 16.6028C17.2751 16.3156 17.2091 16.0694 17.1019 15.8561M12.4728 12.1351C12.4513 12.1583 12.427 12.184 12.3983 12.2143L12.7603 12.5568L12.3983 12.2143C11.926 12.7135 10.8388 13.8662 10.8388 16.0449C10.8388 17.1935 11.2519 18.2957 11.6742 19.1302C12.0999 19.9715 12.557 20.5832 12.6853 20.7548L12.6853 20.7549L12.6854 20.7549L12.6942 20.7668L12.6942 20.7668C12.6945 20.7672 12.6963 20.7696 12.7001 20.775L12.7162 20.7983C12.7298 20.8182 12.7469 20.8434 12.7685 20.8753L12.7743 20.8839C13.3241 21.6966 16.0628 25.7449 20.2498 27.3914C21.9055 28.0431 22.9921 28.3517 23.7716 28.4824C24.5695 28.6162 25.0345 28.5612 25.4195 28.5146C25.4973 28.5052 25.5653 28.497 25.6326 28.4907C26.1438 28.4428 26.858 28.1365 27.4683 27.7434C28.0722 27.3544 28.7186 26.7888 28.9579 26.1281L28.9591 26.1247C29.1507 25.5836 29.2483 25.0781 29.2828 24.6751C29.3 24.4742 29.3022 24.2911 29.29 24.1368C29.28 24.0091 29.2555 23.8197 29.1652 23.6676C29.1651 23.6675 29.1651 23.6675 29.1651 23.6674L28.7351 23.9227M12.4728 12.1351L22.1944 23.6589L22.1948 23.6589C22.1948 23.6589 22.1944 23.659 22.1939 23.6591C22.1936 23.6592 22.1937 23.6592 22.1943 23.6589C22.1881 23.6596 22.1222 23.6634 21.9416 23.5735M12.4728 12.1351C12.4728 12.1351 12.4728 12.1351 12.4728 12.1351L12.8243 12.461L12.4728 12.1351ZM28.7351 23.9227C28.6492 23.7777 28.4464 23.6805 28.1481 23.5375L28.148 23.5374C28.0746 23.5022 27.9954 23.4642 27.9106 23.422C27.482 23.2087 25.3713 22.1747 24.9757 22.0271C24.5798 21.8794 24.2913 21.8137 24.011 22.2404M28.7351 23.9227C28.8423 24.1032 28.8423 24.9566 28.4878 25.9578M28.7351 23.9227L28.4878 25.9578M24.011 22.2404L23.5969 21.9602C23.5964 21.9609 23.5959 21.9617 23.5954 21.9624C23.5947 21.9635 23.5939 21.9647 23.5931 21.9659L24.011 22.2404ZM24.011 22.2404C23.7224 22.6671 22.898 23.6272 22.6505 23.9145C22.4032 24.2017 22.1477 24.2345 21.7189 24.0212M21.7189 24.0212L21.9417 23.5735C21.9416 23.5735 21.9416 23.5735 21.9416 23.5735M21.7189 24.0212L21.9416 23.5735M21.7189 24.0212C21.6492 23.9865 21.5542 23.9455 21.437 23.8949C20.8331 23.6343 19.6384 23.1189 18.2645 21.8957C16.9866 20.7633 16.1209 19.36 15.8734 18.9333M21.9416 23.5735C21.8595 23.5327 21.754 23.4871 21.6457 23.4404L21.635 23.4358L21.6339 23.4353C21.047 23.1821 19.9106 22.6918 18.597 21.5223L18.5961 21.5215C17.3777 20.4419 16.5439 19.0928 16.306 18.6826M16.306 18.6826L15.8734 18.9333M16.306 18.6826C16.2754 18.6298 16.2674 18.5999 16.2654 18.5894M16.306 18.6826C16.306 18.6826 16.3059 18.6825 16.3059 18.6825L15.8734 18.9333M15.8734 18.9333C15.6261 18.5067 15.8488 18.2767 16.0631 18.0635C16.1839 17.9432 16.3249 17.7728 16.4668 17.6013C16.5475 17.5038 16.6285 17.406 16.7062 17.3167L16.2654 18.5894M16.2654 18.5894C16.2688 18.5826 16.2774 18.568 16.2968 18.5441C16.3247 18.5097 16.3604 18.473 16.4157 18.418L16.416 18.4178C16.554 18.2802 16.7076 18.0946 16.8417 17.9326L16.852 17.9201C16.9336 17.8215 17.0104 17.7287 17.0832 17.6452L17.0833 17.6451C17.3166 17.3771 17.421 17.1605 17.5338 16.9263L17.5382 16.9173L17.5382 16.9172C17.5533 16.886 17.5684 16.8547 17.5843 16.8221L16.2654 18.5894ZM16.2654 18.5894C16.2641 18.5919 16.2635 18.5934 16.2633 18.5939C16.2633 18.594 16.2633 18.594 16.2633 18.5939C16.2634 18.5936 16.264 18.5917 16.2644 18.5886C16.2647 18.5862 16.2646 18.5847 16.2646 18.5847C16.2646 18.5847 16.2647 18.5851 16.2647 18.5857C16.2648 18.5864 16.265 18.5876 16.2654 18.5894ZM28.4878 25.9578C28.1251 26.9589 26.3772 27.919 25.5857 27.9929C25.5107 27.9999 25.4362 28.0089 25.3594 28.0182C24.6341 28.106 23.7133 28.2174 20.4327 26.9261C16.3904 25.3365 13.7221 21.3925 13.1826 20.5951C13.14 20.5322 13.1107 20.4888 13.095 20.4678L13.0859 20.4556C12.8404 20.1272 11.3388 18.1179 11.3388 16.0449C11.3388 14.0615 12.3159 13.0289 12.7615 12.5579C12.7898 12.5281 12.8159 12.5005 12.8395 12.4751C13.2351 12.0484 13.6969 11.9417 13.9854 11.9417L28.4878 25.9578ZM12.3685 33.9293C12.257 33.8689 12.1267 33.8531 12.004 33.8852L4.32514 35.8909C4.20096 35.9233 4.08825 35.8091 4.12234 35.6853L6.17336 28.2405C6.20897 28.1112 6.19118 27.9731 6.12399 27.8571C4.71409 25.4227 3.9725 22.6622 3.97351 19.8526V19.8524C3.97351 11.0221 11.2006 3.8335 20.07 3.8335C24.3818 3.8335 28.4186 5.50444 31.4577 8.52938C34.4963 11.5539 36.1667 15.5787 36.1667 19.8606C36.1667 28.6908 28.9397 35.8794 20.0701 35.8794H20.0619C17.3669 35.8794 14.7197 35.2028 12.3685 33.9293Z" fill="white" stroke="white" stroke-linejoin="round"/>
</svg>
