<svg width="61" height="61" viewBox="0 0 61 61" fill="none" xmlns="http://www.w3.org/2000/svg">
<path d="M58.9376 30.5C58.9376 46.2056 46.2057 58.9375 30.5001 58.9375C14.7945 58.9375 2.06262 46.2056 2.06262 30.5C2.06262 14.7944 14.7945 2.0625 30.5001 2.0625C46.2057 2.0625 58.9376 14.7944 58.9376 30.5Z" fill="#FFED00"/>
<path d="M42.6876 22.375L29.9488 35.3231C27.7832 37.5244 26.7004 38.625 25.3548 38.625C24.0092 38.625 22.9264 37.5244 20.7608 35.3232L18.3126 32.8348M58.9376 30.5C58.9376 46.2056 46.2057 58.9375 30.5001 58.9375C14.7945 58.9375 2.06262 46.2056 2.06262 30.5C2.06262 14.7944 14.7945 2.0625 30.5001 2.0625C46.2057 2.0625 58.9376 14.7944 58.9376 30.5Z" stroke="black" stroke-width="4" stroke-linecap="round"/>
</svg>
