<svg width="61" height="61" viewBox="0 0 61 61" fill="none" xmlns="http://www.w3.org/2000/svg">
<path d="M2.0625 32.5312C2.0625 29.1658 4.79077 26.4375 8.15625 26.4375C11.5217 26.4375 14.25 29.1658 14.25 32.5312V52.8438C14.25 56.2092 11.5217 58.9375 8.15625 58.9375C4.79077 58.9375 2.0625 56.2092 2.0625 52.8438V32.5312Z" fill="#FFED00"/>
<path d="M14.25 34.7616C14.25 33.1799 14.25 32.389 14.3963 31.6285C14.5262 30.9536 14.7411 30.2979 15.036 29.6771C15.3683 28.9776 15.8365 28.3402 16.7729 27.0654L34.5591 2.85253C34.9239 2.35585 35.5034 2.0625 36.1197 2.0625C40.3975 2.0625 43.8654 5.53036 43.8654 9.80819V23.3906H44.7254C49.6556 23.3906 52.1207 23.3906 53.9356 24.3773C55.5301 25.2441 56.7884 26.6198 57.51 28.285C58.3314 30.1804 58.1122 32.6358 57.6739 37.5465L56.8217 47.0933C56.4485 51.2737 56.262 53.3639 55.328 54.9449C54.5056 56.3372 53.2864 57.4524 51.8264 58.1479C50.1686 58.9375 48.0701 58.9375 43.8732 58.9375H27.25C22.6996 58.9375 20.4244 58.9375 18.6863 58.0519C17.1575 57.273 15.9145 56.03 15.1356 54.5012C14.25 52.7631 14.25 50.4879 14.25 45.9375V34.7616Z" fill="#FFED00"/>
<path d="M2.0625 32.5312C2.0625 29.1658 4.79077 26.4375 8.15625 26.4375C11.5217 26.4375 14.25 29.1658 14.25 32.5312V52.8438C14.25 56.2092 11.5217 58.9375 8.15625 58.9375C4.79077 58.9375 2.0625 56.2092 2.0625 52.8438V32.5312Z" stroke="black" stroke-width="4" stroke-linejoin="round"/>
<path d="M14.25 34.7616C14.25 33.1799 14.25 32.389 14.3963 31.6285C14.5262 30.9536 14.7411 30.2979 15.036 29.6771C15.3683 28.9776 15.8365 28.3402 16.7729 27.0654L34.5591 2.85253C34.9239 2.35585 35.5034 2.0625 36.1197 2.0625C40.3975 2.0625 43.8654 5.53036 43.8654 9.80819V23.3906H44.7254C49.6556 23.3906 52.1207 23.3906 53.9356 24.3773C55.5301 25.2441 56.7884 26.6198 57.51 28.285C58.3314 30.1804 58.1122 32.6358 57.6739 37.5465L56.8217 47.0933C56.4485 51.2737 56.262 53.3639 55.328 54.9449C54.5056 56.3372 53.2864 57.4524 51.8264 58.1479C50.1686 58.9375 48.0701 58.9375 43.8732 58.9375H27.25C22.6996 58.9375 20.4244 58.9375 18.6863 58.0519C17.1575 57.273 15.9145 56.03 15.1356 54.5012C14.25 52.7631 14.25 50.4879 14.25 45.9375V34.7616Z" stroke="black" stroke-width="4" stroke-linejoin="round"/>
</svg>
