<svg width="31" height="36" viewBox="0 0 31 36" fill="none" xmlns="http://www.w3.org/2000/svg">
<g filter="url(#filter0_d_474_1432)">
<path d="M23.6006 15.525L15.8756 23.2625C14.8628 24.1625 13.5445 24.6416 12.1902 24.6017C10.8359 24.5619 9.54807 24.0061 8.59003 23.0481C7.632 22.09 7.0762 20.8021 7.03634 19.4479C6.99647 18.0936 7.47555 16.7753 8.37557 15.7625L18.3756 5.76252C18.9726 5.19539 19.7646 4.87918 20.5881 4.87918C21.4115 4.87918 22.2035 5.19539 22.8006 5.76252C23.3823 6.35201 23.7084 7.14686 23.7084 7.97502C23.7084 8.80318 23.3823 9.59803 22.8006 10.1875L14.1756 18.8C14.0902 18.8919 13.9876 18.9662 13.8735 19.0184C13.7595 19.0707 13.6363 19.1 13.5109 19.1046C13.3856 19.1093 13.2605 19.0892 13.1429 19.0455C13.0253 19.0018 12.9175 18.9354 12.8256 18.85C12.7336 18.7647 12.6594 18.662 12.6072 18.548C12.5549 18.434 12.5256 18.3107 12.521 18.1854C12.5163 18.06 12.5364 17.935 12.5801 17.8174C12.6238 17.6998 12.6902 17.5919 12.7756 17.5L19.1881 11.1C19.4234 10.8646 19.5557 10.5454 19.5557 10.2125C19.5557 9.87964 19.4234 9.5604 19.1881 9.32502C18.9527 9.08964 18.6334 8.95741 18.3006 8.95741C17.9677 8.95741 17.6484 9.08964 17.4131 9.32502L11.0006 15.75C10.6797 16.0684 10.425 16.4471 10.2512 16.8644C10.0774 17.2817 9.98796 17.7292 9.98796 18.1813C9.98796 18.6333 10.0774 19.0808 10.2512 19.4981C10.425 19.9154 10.6797 20.2941 11.0006 20.6125C11.656 21.2369 12.5266 21.5851 13.4318 21.5851C14.3371 21.5851 15.2076 21.2369 15.8631 20.6125L24.4756 11.9875C25.4692 10.9212 26.0101 9.51086 25.9844 8.0536C25.9587 6.59634 25.3683 5.20596 24.3377 4.17536C23.3071 3.14476 21.9167 2.55442 20.4595 2.52871C19.0022 2.503 17.5919 3.04392 16.5256 4.03752L6.52557 14.0375C5.17707 15.5311 4.45685 17.4873 4.51498 19.4987C4.57311 21.5101 5.40511 23.4216 6.83762 24.8347C8.27012 26.2479 10.1927 27.0538 12.2047 27.0846C14.2167 27.1154 16.163 26.3687 17.6381 25L25.3756 17.275C25.4921 17.1585 25.5846 17.0201 25.6476 16.8678C25.7107 16.7156 25.7432 16.5523 25.7432 16.3875C25.7432 16.2227 25.7107 16.0595 25.6476 15.9072C25.5846 15.7549 25.4921 15.6166 25.3756 15.5C25.259 15.3835 25.1207 15.291 24.9684 15.2279C24.8161 15.1649 24.6529 15.1324 24.4881 15.1324C24.3232 15.1324 24.16 15.1649 24.0078 15.2279C23.8555 15.291 23.7171 15.3835 23.6006 15.5V15.525Z" fill="#C1AA8C"/>
</g>
<defs>
<filter id="filter0_d_474_1432" x="-3" y="0" width="38" height="38" filterUnits="userSpaceOnUse" color-interpolation-filters="sRGB">
<feFlood flood-opacity="0" result="BackgroundImageFix"/>
<feColorMatrix in="SourceAlpha" type="matrix" values="0 0 0 0 0 0 0 0 0 0 0 0 0 0 0 0 0 0 127 0" result="hardAlpha"/>
<feOffset dy="4"/>
<feGaussianBlur stdDeviation="2"/>
<feComposite in2="hardAlpha" operator="out"/>
<feColorMatrix type="matrix" values="0 0 0 0 0 0 0 0 0 0 0 0 0 0 0 0 0 0 0.25 0"/>
<feBlend mode="normal" in2="BackgroundImageFix" result="effect1_dropShadow_474_1432"/>
<feBlend mode="normal" in="SourceGraphic" in2="effect1_dropShadow_474_1432" result="shape"/>
</filter>
</defs>
</svg>
