<?xml version="1.0" encoding="UTF-8"?>
<svg width="138.89" height="28.203" version="1.1" viewBox="0 0 138.89 28.203" xmlns="http://www.w3.org/2000/svg">
 <g fill-rule="evenodd">
  <path d="m27.603 13.801c0-7.6225-6.1792-13.801-13.802-13.801s-13.802 6.1789-13.802 13.801c0 7.6222 6.1794 13.802 13.802 13.802s13.802-6.1793 13.802-13.802z" fill="#fc3f1d"/>
  <path d="m15.642 7.8207h-1.2652c-2.3577 0-3.5656 1.2075-3.5656 2.9332 0 1.9553 0.8626 2.8752 2.5881 4.0825l1.4377 0.978-4.1405 6.2106h-3.1054l3.7378-5.5209c-2.1281-1.5524-3.3354-3.0478-3.3354-5.5206 0-3.1628 2.1853-5.2907 6.3833-5.2907h4.1405v16.39h-2.8753z" fill="#fff"/>
  <path d="m43.617 0.0259c-6.1202 0-11.081 4.9608-11.081 11.081 0 3.0587 1.2397 5.8285 3.2437 7.8339 2.0054 2.0061 6.7289 4.9092 7.006 7.9567 0.0419 0.4572 0.3728 0.8313 0.8314 0.8313s0.7894-0.3741 0.8313-0.8313c0.2771-3.0475 5.0006-5.9506 7.006-7.9567 2.0041-2.0054 3.2437-4.7752 3.2437-7.8339 0-6.1202-4.9608-11.081-11.081-11.081z" fill="#f43"/>
  <path d="m43.617 14.986c2.1422 0 3.8782-1.7367 3.8782-3.8782 0-2.1422-1.736-3.8789-3.8782-3.8789s-3.8782 1.7367-3.8782 3.8789c0 2.1415 1.736 3.8782 3.8782 3.8782z" fill="#fff"/>
  <path d="m127.84 21.07h-1.6492v-4.8147h1.734c1.5261 0 2.4213 0.688 2.4213 2.4217 0 1.7336-0.9896 2.393-2.5061 2.393zm7.4906-12.22v15.028h3.5614v-15.028zm-12.692 0v15.028h5.4085c3.4957 0 5.9735-1.7901 5.9735-5.3235 0-3.3452-2.2139-5.1066-5.9171-5.1066h-1.9128v-4.5984zm-2.0917 2.8077v-2.8077h-11.919v2.8077h4.1837v12.221h3.5521v-12.221zm-19.259 9.7053c-1.8845 0-2.8451-1.5171-2.8451-4.9847 0-3.4954 1.0173-5.0125 3.0243-5.0125 1.9408 0 2.8927 1.5171 2.8927 4.9844 0 3.4957-1.0176 5.0128-3.0719 5.0128zm-3.109-12.513h-3.2885v19.353h3.5524v-6.0869c0.9045 1.338 2.2138 2.0543 3.7406 2.0543 3.458 0 5.851-2.7703 5.851-7.8205 0-5.0224-2.3273-7.7921-5.6725-7.7921-1.6766 0-3.0526 0.7724-4.0039 2.2328zm-9.705 11.439c-0.4524 0.6593-1.2909 1.1965-2.5441 1.1965-1.4888 0-2.2425-0.8385-2.2425-2.1201 0-1.7053 1.2251-2.3272 4.2778-2.3272h0.5088zm3.5521-6.6617c0-3.6369-1.8564-5.0128-5.6157-5.0128-2.3556 0-4.2115 0.7446-5.2861 1.3759v2.9585c0.9519-0.7253 3.0436-1.4981 4.8714-1.4981 1.6962 0 2.4783 0.5936 2.4783 2.2142v0.8291h-0.5749c-5.4368 0-7.8488 1.7997-7.8488 4.8433 0 3.0433 1.8467 4.7489 4.5983 4.7489 2.0914 0 2.9866-0.6877 3.6743-1.404h0.1511c0.028 0.386 0.1505 0.8949 0.2639 1.1965h3.467c-0.1224-1.2249-0.1788-2.4497-0.1788-3.6746zm-16.338 10.252h4.212l-7.3777-10.902 6.6898-9.8558h-3.6749l-6.4258 9.5542v-9.5542h-3.6088v20.757h3.6088v-9.7427z"/>
 </g>
</svg>
