<svg width="40" height="40" viewBox="0 0 40 40" fill="none" xmlns="http://www.w3.org/2000/svg">
<path d="M16.2305 12.4832L16.2308 12.4838C16.4473 12.9665 16.8085 13.8459 17.0989 14.5533L17.1024 14.5617L17.1026 14.5622C17.2166 14.8397 17.3198 15.0911 17.4003 15.2847C17.4407 15.3817 17.4748 15.4628 17.5014 15.5249C17.5148 15.556 17.5258 15.5811 17.5344 15.6006L17.5449 15.6235C17.5477 15.6296 17.5489 15.632 17.5488 15.6318C17.6918 15.9165 17.8204 16.3381 17.5843 16.822C17.5684 16.8546 17.5533 16.8859 17.5382 16.9172L17.0878 16.7002L17.5382 16.9173L17.5338 16.9263C17.421 17.1605 17.3166 17.3771 17.0833 17.6451L17.0832 17.6452C17.0104 17.7287 16.9336 17.8215 16.852 17.9201L16.8417 17.9326C16.7076 18.0946 16.554 18.2802 16.416 18.4178L16.4157 18.418C16.3604 18.473 16.3247 18.5097 16.2968 18.5441C16.2774 18.568 16.2688 18.5826 16.2654 18.5894C16.2674 18.5999 16.2754 18.6298 16.306 18.6826C16.5439 19.0928 17.3777 20.4419 18.5961 21.5215L18.597 21.5223C19.9106 22.6918 21.047 23.1821 21.6339 23.4353L21.635 23.4358L21.6458 23.4405C21.754 23.4872 21.8596 23.5327 21.9417 23.5735M16.2305 12.4832L22.1944 23.6589L22.1948 23.6589C22.1948 23.6589 22.1944 23.659 22.1939 23.6591C22.1936 23.6592 22.1937 23.6592 22.1943 23.6589M16.2305 12.4832C16.0454 12.0723 15.8227 11.7877 15.5367 11.622C15.2599 11.4615 14.9878 11.4544 14.8351 11.4504C14.8316 11.4503 14.8282 11.4502 14.8248 11.4501M16.2305 12.4832L13.1826 20.5951L12.7685 20.8753C12.7469 20.8434 12.7298 20.8182 12.7162 20.7983L12.7001 20.775C12.6963 20.7696 12.6945 20.7672 12.6942 20.7668L12.6942 20.7668L12.6854 20.7549L12.6853 20.7548L12.6853 20.7548C12.5571 20.5832 12.0999 19.9715 11.6742 19.1302C11.2519 18.2957 10.8388 17.1935 10.8388 16.0449C10.8388 13.8662 11.926 12.7135 12.3983 12.2143C12.427 12.184 12.4513 12.1583 12.4728 12.1351C12.9787 11.5896 13.5825 11.4417 13.9854 11.4417H13.991C14.275 11.4417 14.5696 11.4417 14.8248 11.4501M21.9417 23.5735L21.7189 24.0212L21.9416 23.5735C21.9416 23.5735 21.9416 23.5735 21.9417 23.5735ZM21.9417 23.5735C22.1222 23.6634 22.1881 23.6596 22.1943 23.6589M22.1943 23.6589C22.1952 23.6586 22.1969 23.6577 22.1996 23.6561C22.2096 23.6499 22.2337 23.6323 22.2717 23.5882L22.2717 23.5882C22.5291 23.2893 23.3259 22.3598 23.5954 21.9624C23.789 21.6691 24.0463 21.4625 24.3915 21.4218C24.6843 21.3873 24.9634 21.4888 25.1504 21.5586L25.1505 21.5586C25.3757 21.6427 26.0296 21.9519 26.6477 22.2494C27.28 22.5538 27.9169 22.8666 28.1334 22.9744L28.1335 22.9744C28.2145 23.0147 28.2905 23.0512 28.3643 23.0866L28.3792 23.0938C28.5162 23.1594 28.6612 23.2289 28.7819 23.3027C28.9064 23.3787 29.0605 23.4911 29.1652 23.6676M22.1943 23.6589L29.1652 23.6676M29.1652 23.6676C29.1651 23.6675 29.1651 23.6675 29.1651 23.6674L28.7351 23.9227L29.1652 23.6676ZM14.8248 11.4501C14.8254 11.4502 14.8259 11.4502 14.8265 11.4502L14.8099 11.9499L14.8233 11.4501C14.8238 11.4501 14.8243 11.4501 14.8248 11.4501ZM12.3685 33.9293C12.257 33.8689 12.1267 33.8531 12.004 33.8852L4.32514 35.8909C4.20095 35.9233 4.08825 35.8091 4.12234 35.6853L6.17336 28.2405C6.20897 28.1112 6.19118 27.9731 6.12399 27.8571C4.71409 25.4227 3.9725 22.6622 3.97351 19.8526V19.8524C3.97351 11.0221 11.2006 3.8335 20.07 3.8335C24.3818 3.8335 28.4186 5.50444 31.4577 8.52938C34.4963 11.5539 36.1667 15.5787 36.1667 19.8606C36.1667 28.6908 28.9397 35.8794 20.0701 35.8794H20.0619C17.3669 35.8794 14.7197 35.2028 12.3685 33.9293ZM25.6324 28.4907C25.6324 28.4907 25.6325 28.4907 25.6326 28.4907L25.5857 27.9929L25.6321 28.4907L25.6324 28.4907ZM20.2498 27.3914L20.4327 26.9261L20.2496 27.3913C20.2497 27.3913 20.2497 27.3914 20.2498 27.3914Z" fill="white" stroke="white" stroke-linejoin="round"/>
</svg>
