<svg width="61" height="61" viewBox="0 0 61 61" fill="none" xmlns="http://www.w3.org/2000/svg">
<path d="M2.0625 30.5C2.0625 26.7266 2.0625 24.8399 2.27103 23.2559C3.71103 12.318 12.318 3.71103 23.2559 2.27103C24.8399 2.0625 26.7266 2.0625 30.5 2.0625C34.2734 2.0625 36.1601 2.0625 37.7441 2.27103C48.682 3.71103 57.289 12.318 58.729 23.2559C58.9375 24.8399 58.9375 26.7266 58.9375 30.5C58.9375 34.2734 58.9375 36.1601 58.729 37.7441C57.289 48.682 48.682 57.289 37.7441 58.729C36.1601 58.9375 34.2734 58.9375 30.5 58.9375C26.7266 58.9375 24.8399 58.9375 23.2559 58.729C12.318 57.289 3.71103 48.682 2.27103 37.7441C2.0625 36.1601 2.0625 34.2734 2.0625 30.5Z" fill="#FFED00"/>
<path d="M30.5 18.3125V30.5H42.6875M30.5 58.9375C26.7266 58.9375 24.8399 58.9375 23.2559 58.729C12.318 57.289 3.71103 48.682 2.27103 37.7441C2.0625 36.1601 2.0625 34.2734 2.0625 30.5C2.0625 26.7266 2.0625 24.8399 2.27103 23.2559C3.71103 12.318 12.318 3.71103 23.2559 2.27103C24.8399 2.0625 26.7266 2.0625 30.5 2.0625C34.2734 2.0625 36.1601 2.0625 37.7441 2.27103C48.682 3.71103 57.289 12.318 58.729 23.2559C58.9375 24.8399 58.9375 26.7266 58.9375 30.5C58.9375 34.2734 58.9375 36.1601 58.729 37.7441C57.289 48.682 48.682 57.289 37.7441 58.729C36.1601 58.9375 34.2734 58.9375 30.5 58.9375Z" stroke="black" stroke-width="4" stroke-linecap="round" stroke-linejoin="round"/>
</svg>
