<svg width="61" height="61" viewBox="0 0 61 61" fill="none" xmlns="http://www.w3.org/2000/svg">
<path d="M30.5 58.9376H41.875C46.4254 58.9376 48.7008 58.9376 50.4387 58.052C51.9675 57.2732 53.2106 56.0301 53.9894 54.5013C54.875 52.7634 54.875 50.488 54.875 45.9376V26.4376H6.125V45.9376C6.125 50.488 6.125 52.7634 7.01058 54.5013C7.78953 56.0301 9.03249 57.2732 10.5613 58.052C12.2994 58.9376 14.5746 58.9376 19.125 58.9376H30.5ZM30.5 58.9376V14.2501ZM30.5 14.2501H52.8438C54.7365 14.2501 55.683 14.2501 56.4297 14.5593C57.425 14.9716 58.216 15.7625 58.6283 16.758C58.9375 17.5045 58.9375 18.451 58.9375 20.3438C58.9375 22.2367 58.9375 23.1832 58.6283 23.9297C58.216 24.9252 57.425 25.7161 56.4297 26.1284C55.683 26.4376 54.7365 26.4376 52.8438 26.4376H8.15625C6.26337 26.4376 5.31693 26.4376 4.57036 26.1284C3.57493 25.7161 2.78404 24.9252 2.37174 23.9297C2.0625 23.1832 2.0625 22.2367 2.0625 20.3438C2.0625 18.451 2.0625 17.5045 2.37174 16.758C2.78404 15.7625 3.57493 14.9716 4.57036 14.5593C5.31693 14.2501 6.26337 14.2501 8.15625 14.2501H14.25M30.5 14.2501C30.5 4.10904 22.7671 1.39918 18.3444 2.52401C12.2511 4.07373 12.736 11.6213 14.25 14.2501M30.5 14.2501H14.25ZM30.5 14.2501C30.5 4.10904 38.2329 1.39918 42.6554 2.52401C48.7487 4.07373 48.2641 11.6213 46.75 14.2501H30.5Z" fill="#FFED00"/>
<path d="M30.5 58.9376H41.875C46.4254 58.9376 48.7008 58.9376 50.4387 58.052C51.9675 57.2732 53.2106 56.0301 53.9894 54.5013C54.875 52.7634 54.875 50.488 54.875 45.9376V26.4376H6.125V45.9376C6.125 50.488 6.125 52.7634 7.01058 54.5013C7.78953 56.0301 9.03249 57.2732 10.5613 58.052C12.2994 58.9376 14.5746 58.9376 19.125 58.9376H30.5ZM30.5 58.9376V14.2501M30.5 14.2501H52.8438C54.7365 14.2501 55.683 14.2501 56.4297 14.5593C57.425 14.9716 58.216 15.7625 58.6283 16.758C58.9375 17.5045 58.9375 18.451 58.9375 20.3438C58.9375 22.2367 58.9375 23.1832 58.6283 23.9297C58.216 24.9252 57.425 25.7161 56.4297 26.1284C55.683 26.4376 54.7365 26.4376 52.8438 26.4376H8.15625C6.26337 26.4376 5.31693 26.4376 4.57036 26.1284C3.57493 25.7161 2.78404 24.9252 2.37174 23.9297C2.0625 23.1832 2.0625 22.2367 2.0625 20.3438C2.0625 18.451 2.0625 17.5045 2.37174 16.758C2.78404 15.7625 3.57493 14.9716 4.57036 14.5593C5.31693 14.2501 6.26337 14.2501 8.15625 14.2501H14.25M30.5 14.2501C30.5 4.10904 22.7671 1.39918 18.3444 2.52401C12.2511 4.07373 12.736 11.6213 14.25 14.2501M30.5 14.2501H14.25M30.5 14.2501C30.5 4.10904 38.2329 1.39918 42.6554 2.52401C48.7487 4.07373 48.2641 11.6213 46.75 14.2501H30.5Z" stroke="black" stroke-width="4" stroke-linecap="round" stroke-linejoin="round"/>
</svg>
